Roboto Serif Text-Italic.ufo
<glyph name="asterisk" format="1">
  <advance width="400"/>
  <unicode hex="002A"/>
  <outline>
    <contour>
      <point x="153" y="350" type="curve"/>
      <point x="223" y="350" type="line"/>
      <point x="232" y="398"/>
      <point x="225" y="428"/>
      <point x="234" y="494" type="curve"/>
      <point x="284" y="451"/>
      <point x="296" y="426"/>
      <point x="333" y="396" type="curve"/>
      <point x="379" y="452" type="line"/>
      <point x="342" y="483"/>
      <point x="313" y="487"/>
      <point x="258" y="526" type="curve"/>
      <point x="325" y="554"/>
      <point x="353" y="554"/>
      <point x="400" y="576" type="curve"/>
      <point x="376" y="638" type="line"/>
      <point x="329" y="618"/>
      <point x="309" y="595"/>
      <point x="246" y="561" type="curve"/>
      <point x="262" y="628"/>
      <point x="277" y="653"/>
      <point x="286" y="710" type="curve"/>
      <point x="217" y="710" type="line"/>
      <point x="209" y="661"/>
      <point x="216" y="632"/>
      <point x="206" y="566" type="curve"/>
      <point x="156" y="609"/>
      <point x="144" y="635"/>
      <point x="106" y="663" type="curve"/>
      <point x="59" y="607" type="line"/>
      <point x="98" y="577"/>
      <point x="126" y="572"/>
      <point x="182" y="533" type="curve"/>
      <point x="114" y="506"/>
      <point x="85" y="506"/>
      <point x="38" y="483" type="curve"/>
      <point x="63" y="421" type="line"/>
      <point x="110" y="443"/>
      <point x="131" y="464"/>
      <point x="193" y="497" type="curve"/>
      <point x="179" y="432"/>
      <point x="162" y="404"/>
    </contour>
  </outline>
</glyph>
<glyph name="four" format="1">
  <advance width="560"/>
  <unicode hex="0034"/>
  <outline>
    <contour>
      <point x="2" y="112" type="line"/>
      <point x="319" y="112" type="line"/>
      <point x="286" y="-77" type="line"/>
      <point x="374" y="-77" type="line"/>
      <point x="407" y="112" type="line"/>
      <point x="525" y="112" type="line"/>
      <point x="537" y="179" type="line"/>
      <point x="418" y="179" type="line"/>
      <point x="492" y="609" type="line"/>
      <point x="373" y="609" type="line"/>
      <point x="15" y="185" type="line"/>
    </contour>
    <contour>
      <point x="87" y="179" type="line"/>
      <point x="393" y="541" type="line"/>
      <point x="330" y="179" type="line"/>
    </contour>
  </outline>
</glyph>
<glyph name="seven" format="1">
  <advance width="560"/>
  <unicode hex="0037"/>
  <outline>
    <contour>
      <point x="292" y="532" type="curve" smooth="yes"/>
      <point x="508" y="532" type="line"/>
      <point x="423" y="451"/>
      <point x="207" y="208"/>
      <point x="139" y="-77" type="curve"/>
      <point x="236" y="-77" type="line"/>
      <point x="306" y="235"/>
      <point x="430" y="366"/>
      <point x="578" y="533" type="curve"/>
      <point x="591" y="609" type="line"/>
      <point x="116" y="609" type="line"/>
      <point x="79" y="399" type="line"/>
      <point x="132" y="399" type="line"/>
      <point x="159" y="489" type="line" smooth="yes"/>
      <point x="170" y="525"/>
      <point x="206" y="532"/>
    </contour>
  </outline>
</glyph>
<glyph name="colon" format="1">
  <advance width="267"/>
  <unicode hex="003A"/>
  <outline>
    <contour>
      <point x="233" y="445" type="curve" smooth="yes"/>
      <point x="233" y="483"/>
      <point x="205" y="509"/>
      <point x="164" y="509" type="curve" smooth="yes"/>
      <point x="124" y="509"/>
      <point x="96" y="483"/>
      <point x="96" y="445" type="curve" smooth="yes"/>
      <point x="96" y="408"/>
      <point x="124" y="382"/>
      <point x="164" y="382" type="curve" smooth="yes"/>
      <point x="205" y="382"/>
      <point x="233" y="408"/>
    </contour>
    <contour>
      <point x="162" y="57" type="curve" smooth="yes"/>
      <point x="162" y="95"/>
      <point x="134" y="121"/>
      <point x="93" y="121" type="curve" smooth="yes"/>
      <point x="53" y="121"/>
      <point x="25" y="95"/>
      <point x="25" y="57" type="curve" smooth="yes"/>
      <point x="25" y="20"/>
      <point x="53" y="-6"/>
      <point x="93" y="-6" type="curve" smooth="yes"/>
      <point x="134" y="-6"/>
      <point x="162" y="20"/>
    </contour>
  </outline>
</glyph>
<glyph name="R" format="1">
  <advance width="695"/>
  <unicode hex="0052"/>
  <outline>
    <contour>
      <point x="-10" y="0" type="line"/>
      <point x="267" y="0" type="line"/>
      <point x="276" y="47" type="line"/>
      <point x="265" y="47" type="line" smooth="yes"/>
      <point x="232" y="47"/>
      <point x="188" y="50"/>
      <point x="189" y="57" type="curve" smooth="yes"/>
      <point x="232" y="301" type="line"/>
      <point x="331" y="301" type="line" smooth="yes"/>
      <point x="343" y="301"/>
      <point x="354" y="301"/>
      <point x="365" y="302" type="curve"/>
      <point x="487" y="0" type="line"/>
      <point x="623" y="0" type="line"/>
      <point x="632" y="47" type="line"/>
      <point x="623" y="47" type="line" smooth="yes"/>
      <point x="585" y="47"/>
      <point x="570" y="50"/>
      <point x="556" y="82" type="curve" smooth="yes"/>
      <point x="453" y="316" type="line"/>
      <point x="562" y="347"/>
      <point x="622" y="422"/>
      <point x="622" y="526" type="curve" smooth="yes"/>
      <point x="622" y="631"/>
      <point x="540" y="710"/>
      <point x="377" y="710" type="curve" smooth="yes"/>
      <point x="116" y="710" type="line"/>
      <point x="107" y="663" type="line"/>
      <point x="118" y="663" type="line"/>
      <point x="172" y="663"/>
      <point x="202" y="654"/>
      <point x="197" y="627" type="curve" smooth="yes"/>
      <point x="100" y="79" type="line" smooth="yes"/>
      <point x="95" y="52"/>
      <point x="56" y="47"/>
      <point x="10" y="47" type="curve" smooth="yes"/>
      <point x="-1" y="47" type="line"/>
    </contour>
    <contour>
      <point x="380" y="651" type="line" smooth="yes"/>
      <point x="481" y="651"/>
      <point x="525" y="602"/>
      <point x="525" y="530" type="curve" smooth="yes"/>
      <point x="525" y="421"/>
      <point x="468" y="357"/>
      <point x="337" y="357" type="curve" smooth="yes"/>
      <point x="242" y="357" type="line"/>
      <point x="294" y="651" type="line"/>
    </contour>
    <contour>
      <point x="382" y="741" type="move" name="top"/>
    </contour>
    <contour>
      <point x="382" y="0" type="move" name="bottom"/>
    </contour>
  </outline>
</glyph>
<glyph name="U" format="1">
  <advance width="786"/>
  <unicode hex="0055"/>
  <outline>
    <contour>
      <point x="218" y="321" type="curve" smooth="yes"/>
      <point x="276" y="653" type="line" smooth="yes"/>
      <point x="277" y="660"/>
      <point x="327" y="663"/>
      <point x="365" y="663" type="curve" smooth="yes"/>
      <point x="374" y="663" type="line"/>
      <point x="382" y="710" type="line"/>
      <point x="96" y="710" type="line"/>
      <point x="88" y="663" type="line"/>
      <point x="99" y="663" type="line" smooth="yes"/>
      <point x="146" y="663"/>
      <point x="182" y="657"/>
      <point x="178" y="632" type="curve" smooth="yes"/>
      <point x="126" y="332" type="line" smooth="yes"/>
      <point x="118" y="288"/>
      <point x="113" y="246"/>
      <point x="113" y="205" type="curve" smooth="yes"/>
      <point x="113" y="61"/>
      <point x="217" y="-10"/>
      <point x="352" y="-10" type="curve" smooth="yes"/>
      <point x="498" y="-10"/>
      <point x="609" y="74"/>
      <point x="647" y="288" type="curve"/>
      <point x="706" y="617" type="line" smooth="yes"/>
      <point x="712" y="651"/>
      <point x="750" y="663"/>
      <point x="799" y="663" type="curve" smooth="yes"/>
      <point x="810" y="663" type="line"/>
      <point x="818" y="710" type="line"/>
      <point x="560" y="710" type="line"/>
      <point x="552" y="663" type="line"/>
      <point x="561" y="663" type="line" smooth="yes"/>
      <point x="597" y="663"/>
      <point x="647" y="656"/>
      <point x="644" y="642" type="curve" smooth="yes"/>
      <point x="582" y="293" type="line" smooth="yes"/>
      <point x="552" y="125"/>
      <point x="486" y="59"/>
      <point x="372" y="59" type="curve" smooth="yes"/>
      <point x="274" y="59"/>
      <point x="205" y="104"/>
      <point x="205" y="205" type="curve" smooth="yes"/>
      <point x="205" y="236"/>
      <point x="211" y="279"/>
    </contour>
    <contour>
      <point x="393" y="741" type="move" name="top"/>
    </contour>
    <contour>
      <point x="393" y="0" type="move" name="bottom"/>
    </contour>
    <contour>
      <point x="448" y="0" type="move" name="right"/>
    </contour>
  </outline>
</glyph>
<glyph name="bracketleft" format="1">
  <advance width="339"/>
  <unicode hex="005B"/>
  <outline>
    <contour>
      <point x="260" y="-80" type="line"/>
      <point x="96" y="-80" type="line"/>
      <point x="234" y="700" type="line"/>
      <point x="388" y="700" type="line"/>
      <point x="397" y="750" type="line"/>
      <point x="163" y="750" type="line"/>
      <point x="7" y="-130" type="line"/>
      <point x="251" y="-130" type="line"/>
    </contour>
  </outline>
</glyph>
<glyph name="backslash" format="1">
  <advance width="420"/>
  <unicode hex="005C"/>
  <outline>
    <contour>
      <point x="139" y="750" type="line"/>
      <point x="72" y="750" type="line"/>
      <point x="284" y="-128" type="line"/>
      <point x="351" y="-128" type="line"/>
    </contour>
  </outline>
</glyph>
<glyph name="e" format="1">
  <advance width="506"/>
  <unicode hex="0065"/>
  <outline>
    <contour>
      <point x="452" y="115" type="curve"/>
      <point x="406" y="150" type="line"/>
      <point x="379" y="96"/>
      <point x="334" y="45"/>
      <point x="261" y="45" type="curve" smooth="yes"/>
      <point x="180" y="45"/>
      <point x="137" y="101"/>
      <point x="135" y="198" type="curve"/>
      <point x="363" y="202"/>
      <point x="476" y="270"/>
      <point x="476" y="388" type="curve" smooth="yes"/>
      <point x="476" y="464"/>
      <point x="416" y="518"/>
      <point x="316" y="518" type="curve" smooth="yes"/>
      <point x="150" y="518"/>
      <point x="44" y="363"/>
      <point x="44" y="214" type="curve" smooth="yes"/>
      <point x="44" y="67"/>
      <point x="136" y="-12"/>
      <point x="256" y="-12" type="curve" smooth="yes"/>
      <point x="341" y="-12"/>
      <point x="414" y="33"/>
    </contour>
    <contour>
      <point x="311" y="461" type="curve" smooth="yes"/>
      <point x="362" y="461"/>
      <point x="389" y="432"/>
      <point x="389" y="388" type="curve" smooth="yes"/>
      <point x="389" y="302"/>
      <point x="328" y="255"/>
      <point x="138" y="250" type="curve"/>
      <point x="153" y="374"/>
      <point x="226" y="461"/>
    </contour>
    <contour>
      <point x="258.0" y="551.0" type="move" name="top"/>
    </contour>
    <contour>
      <point x="273.0" y="0.0" type="move" name="bottom"/>
    </contour>
    <contour>
      <point x="399.0" y="1.0" type="move" name="right"/>
    </contour>
  </outline>
</glyph>
<glyph name="u" format="1">
  <advance width="616"/>
  <unicode hex="0075"/>
  <outline>
    <contour>
      <point x="480" y="-7" type="curve" smooth="yes"/>
      <point x="519" y="-7"/>
      <point x="550" y="7"/>
      <point x="571" y="22" type="curve"/>
      <point x="581" y="74" type="line"/>
      <point x="570" y="70"/>
      <point x="536" y="53"/>
      <point x="506" y="53" type="curve" smooth="yes"/>
      <point x="484" y="53"/>
      <point x="474" y="62"/>
      <point x="474" y="80" type="curve" smooth="yes"/>
      <point x="474" y="94"/>
      <point x="478" y="119"/>
      <point x="485" y="161" type="curve" smooth="yes"/>
      <point x="546" y="508" type="line"/>
      <point x="458" y="508" type="line"/>
      <point x="402" y="186" type="line"/>
      <point x="346" y="97"/>
      <point x="292" y="53"/>
      <point x="236" y="53" type="curve" smooth="yes"/>
      <point x="192" y="53"/>
      <point x="176" y="77"/>
      <point x="176" y="116" type="curve" smooth="yes"/>
      <point x="176" y="132"/>
      <point x="180" y="153"/>
      <point x="186" y="187" type="curve" smooth="yes"/>
      <point x="246" y="508" type="line"/>
      <point x="62" y="508" type="line"/>
      <point x="54" y="462" type="line"/>
      <point x="69" y="460" type="line" smooth="yes"/>
      <point x="119" y="453"/>
      <point x="145" y="445"/>
      <point x="139" y="413" type="curve" smooth="yes"/>
      <point x="95" y="183" type="line" smooth="yes"/>
      <point x="89" y="151"/>
      <point x="86" y="125"/>
      <point x="86" y="107" type="curve" smooth="yes"/>
      <point x="86" y="33"/>
      <point x="134" y="-10"/>
      <point x="209" y="-10" type="curve" smooth="yes"/>
      <point x="287" y="-10"/>
      <point x="346" y="39"/>
      <point x="400" y="118" type="curve"/>
      <point x="397" y="102"/>
      <point x="396" y="89"/>
      <point x="396" y="77" type="curve" smooth="yes"/>
      <point x="396" y="23"/>
      <point x="432" y="-7"/>
    </contour>
    <contour>
      <point x="283" y="551" type="move" name="top"/>
    </contour>
    <contour>
      <point x="283" y="0" type="move" name="bottom"/>
    </contour>
    <contour>
      <point x="443" y="0" type="move" name="right"/>
    </contour>
  </outline>
</glyph>
<glyph name="asciitilde" format="1">
  <advance width="538"/>
  <unicode hex="007E"/>
  <outline>
    <contour>
      <point x="215" y="405" type="curve" smooth="yes"/>
      <point x="147" y="405"/>
      <point x="110" y="364"/>
      <point x="88" y="282" type="curve"/>
      <point x="143" y="262" type="line"/>
      <point x="154" y="301"/>
      <point x="166" y="325"/>
      <point x="200" y="325" type="curve" smooth="yes"/>
      <point x="245" y="325"/>
      <point x="268" y="269"/>
      <point x="346" y="269" type="curve" smooth="yes"/>
      <point x="406" y="269"/>
      <point x="450" y="306"/>
      <point x="472" y="392" type="curve"/>
      <point x="419" y="412" type="line"/>
      <point x="405" y="373"/>
      <point x="393" y="349"/>
      <point x="361" y="349" type="curve" smooth="yes"/>
      <point x="316" y="349"/>
      <point x="283" y="405"/>
    </contour>
  </outline>
</glyph>
<glyph name="ordfeminine" format="1">
  <advance width="482"/>
  <unicode hex="00AA"/>
  <outline>
    <contour>
      <point x="177" y="310" type="curve" smooth="yes"/>
      <point x="234" y="310"/>
      <point x="269" y="347"/>
      <point x="308" y="414" type="curve"/>
      <point x="306" y="403"/>
      <point x="304" y="392"/>
      <point x="304" y="379" type="curve" smooth="yes"/>
      <point x="304" y="335"/>
      <point x="336" y="314"/>
      <point x="382" y="314" type="curve" smooth="yes"/>
      <point x="413" y="314"/>
      <point x="437" y="324"/>
      <point x="453" y="336" type="curve"/>
      <point x="461" y="386" type="line"/>
      <point x="452" y="383"/>
      <point x="428" y="370"/>
      <point x="405" y="370" type="curve" smooth="yes"/>
      <point x="387" y="370"/>
      <point x="378" y="377"/>
      <point x="378" y="393" type="curve" smooth="yes"/>
      <point x="378" y="407"/>
      <point x="383" y="428"/>
      <point x="388" y="455" type="curve" smooth="yes"/>
      <point x="434" y="714" type="line"/>
      <point x="388" y="714" type="line"/>
      <point x="363" y="680" type="line"/>
      <point x="341" y="705"/>
      <point x="309" y="720"/>
      <point x="266" y="720" type="curve" smooth="yes"/>
      <point x="141" y="720"/>
      <point x="43" y="601"/>
      <point x="43" y="465" type="curve" smooth="yes"/>
      <point x="43" y="362"/>
      <point x="95" y="310"/>
    </contour>
    <contour>
      <point x="131" y="460" type="curve" smooth="yes"/>
      <point x="131" y="569"/>
      <point x="190" y="665"/>
      <point x="264" y="665" type="curve" smooth="yes"/>
      <point x="295" y="665"/>
      <point x="320" y="649"/>
      <point x="335" y="622" type="curve"/>
      <point x="312" y="490" type="line"/>
      <point x="268" y="407"/>
      <point x="234" y="365"/>
      <point x="188" y="365" type="curve" smooth="yes"/>
      <point x="149" y="365"/>
      <point x="131" y="396"/>
    </contour>
  </outline>
</glyph>
<glyph name="paragraph" format="1">
  <advance width="617.0"/>
  <unicode hex="00B6"/>
  <outline>
    <contour>
      <point x="258" y="0" type="line"/>
      <point x="376" y="663" type="line"/>
      <point x="481" y="663" type="line"/>
      <point x="363" y="0" type="line"/>
      <point x="428" y="0" type="line"/>
      <point x="539" y="627" type="line" smooth="yes"/>
      <point x="544" y="656"/>
      <point x="581" y="663"/>
      <point x="630" y="663" type="curve" smooth="yes"/>
      <point x="641" y="663" type="line"/>
      <point x="650" y="710" type="line"/>
      <point x="329" y="710" type="line" smooth="yes"/>
      <point x="170" y="710"/>
      <point x="78" y="638"/>
      <point x="78" y="508" type="curve" smooth="yes"/>
      <point x="78" y="410"/>
      <point x="145" y="345"/>
      <point x="249" y="345" type="curve" smooth="yes"/>
      <point x="254" y="345" type="line"/>
      <point x="193" y="0" type="line"/>
    </contour>
  </outline>
</glyph>
<glyph name="periodcentered" format="1">
  <advance width="253"/>
  <unicode hex="00B7"/>
  <outline>
    <contour>
      <point x="206" y="357" type="curve" smooth="yes"/>
      <point x="206" y="395"/>
      <point x="178" y="421"/>
      <point x="137" y="421" type="curve" smooth="yes"/>
      <point x="97" y="421"/>
      <point x="69" y="395"/>
      <point x="69" y="357" type="curve" smooth="yes"/>
      <point x="69" y="320"/>
      <point x="97" y="294"/>
      <point x="137" y="294" type="curve" smooth="yes"/>
      <point x="178" y="294"/>
      <point x="206" y="320"/>
    </contour>
  </outline>
</glyph>
<glyph name="ordmasculine" format="1">
  <advance width="514"/>
  <unicode hex="00BA"/>
  <outline>
    <contour>
      <point x="263" y="310" type="curve" smooth="yes"/>
      <point x="385" y="310"/>
      <point x="482" y="400"/>
      <point x="482" y="539" type="curve" smooth="yes"/>
      <point x="482" y="649"/>
      <point x="403" y="720"/>
      <point x="298" y="720" type="curve" smooth="yes"/>
      <point x="178" y="720"/>
      <point x="80" y="628"/>
      <point x="80" y="489" type="curve" smooth="yes"/>
      <point x="80" y="379"/>
      <point x="161" y="310"/>
    </contour>
    <contour>
      <point x="298" y="666" type="curve"/>
      <point x="358" y="666"/>
      <point x="394" y="623"/>
      <point x="394" y="551" type="curve" smooth="yes"/>
      <point x="394" y="524"/>
      <point x="391" y="499"/>
      <point x="384" y="474" type="curve" smooth="yes"/>
      <point x="366" y="412"/>
      <point x="327" y="364"/>
      <point x="264" y="364" type="curve"/>
      <point x="204" y="364"/>
      <point x="168" y="407"/>
      <point x="168" y="479" type="curve" smooth="yes"/>
      <point x="168" y="506"/>
      <point x="171" y="531"/>
      <point x="178" y="556" type="curve" smooth="yes"/>
      <point x="196" y="618"/>
      <point x="235" y="666"/>
    </contour>
  </outline>
</glyph>
<glyph name="germandbls" format="1">
  <advance width="595"/>
  <unicode hex="00DF"/>
  <outline>
    <contour>
      <point x="125" y="-223" type="line"/>
      <point x="250" y="570" type="line" smooth="yes"/>
      <point x="264" y="659"/>
      <point x="304" y="696"/>
      <point x="366" y="696" type="curve" smooth="yes"/>
      <point x="428" y="696"/>
      <point x="459" y="661"/>
      <point x="459" y="602" type="curve" smooth="yes"/>
      <point x="459" y="516"/>
      <point x="400" y="453"/>
      <point x="289" y="449" type="curve"/>
      <point x="280" y="397" type="line"/>
      <point x="384" y="390"/>
      <point x="461" y="307"/>
      <point x="461" y="209" type="curve" smooth="yes"/>
      <point x="461" y="100"/>
      <point x="404" y="46"/>
      <point x="336" y="46" type="curve" smooth="yes"/>
      <point x="284" y="46"/>
      <point x="237" y="75"/>
      <point x="229" y="78" type="curve"/>
      <point x="218" y="18" type="line"/>
      <point x="234" y="7"/>
      <point x="277" y="-11"/>
      <point x="334" y="-11" type="curve"/>
      <point x="455" y="-11"/>
      <point x="551" y="67"/>
      <point x="551" y="203" type="curve" smooth="yes"/>
      <point x="551" y="295"/>
      <point x="492" y="384"/>
      <point x="369" y="422" type="curve"/>
      <point x="469" y="444"/>
      <point x="544" y="511"/>
      <point x="544" y="600" type="curve" smooth="yes"/>
      <point x="544" y="688"/>
      <point x="479" y="752"/>
      <point x="367" y="752" type="curve" smooth="yes"/>
      <point x="259" y="752"/>
      <point x="174" y="696"/>
      <point x="155" y="550" type="curve" smooth="yes"/>
      <point x="150" y="508" type="line"/>
      <point x="53" y="508" type="line"/>
      <point x="44" y="454" type="line"/>
      <point x="143" y="454" type="line"/>
      <point x="55" y="-223" type="line"/>
    </contour>
  </outline>
</glyph>
<glyph name="divide" format="1">
  <advance width="560"/>
  <unicode hex="00F7"/>
  <outline>
    <contour>
      <point x="372" y="506" type="curve" smooth="yes"/>
      <point x="372" y="542"/>
      <point x="345" y="566"/>
      <point x="309" y="566" type="curve" smooth="yes"/>
      <point x="272" y="566"/>
      <point x="246" y="542"/>
      <point x="246" y="506" type="curve" smooth="yes"/>
      <point x="246" y="472"/>
      <point x="272" y="447"/>
      <point x="309" y="447" type="curve" smooth="yes"/>
      <point x="345" y="447"/>
      <point x="372" y="472"/>
    </contour>
    <contour>
      <point x="314" y="175" type="curve" smooth="yes"/>
      <point x="314" y="211"/>
      <point x="287" y="235"/>
      <point x="251" y="235" type="curve" smooth="yes"/>
      <point x="214" y="235"/>
      <point x="188" y="211"/>
      <point x="188" y="175" type="curve" smooth="yes"/>
      <point x="188" y="140"/>
      <point x="214" y="116"/>
      <point x="251" y="116" type="curve" smooth="yes"/>
      <point x="287" y="116"/>
      <point x="314" y="140"/>
    </contour>
    <contour>
      <point x="493" y="374" type="line"/>
      <point x="79" y="374" type="line"/>
      <point x="67" y="308" type="line"/>
      <point x="481" y="308" type="line"/>
    </contour>
  </outline>
</glyph>
<glyph name="thorn" format="1">
  <advance width="615"/>
  <unicode hex="00FE"/>
  <outline>
    <contour>
      <point x="279" y="735" type="line"/>
      <point x="102" y="735" type="line"/>
      <point x="94" y="689" type="line"/>
      <point x="105" y="687" type="line" smooth="yes"/>
      <point x="156" y="678"/>
      <point x="180" y="672"/>
      <point x="175" y="642" type="curve" smooth="yes"/>
      <point x="40" y="-143" type="line" smooth="yes"/>
      <point x="35" y="-172"/>
      <point x="-2" y="-178"/>
      <point x="-51" y="-178" type="curve"/>
      <point x="-52" y="-178" type="line"/>
      <point x="-60" y="-223" type="line"/>
      <point x="221" y="-223" type="line"/>
      <point x="229" y="-178" type="line"/>
      <point x="200" y="-178" type="line" smooth="yes"/>
      <point x="172" y="-178"/>
      <point x="123" y="-174"/>
      <point x="124" y="-167" type="curve"/>
      <point x="156" y="22" type="line"/>
      <point x="189" y="0"/>
      <point x="229" y="-12"/>
      <point x="277" y="-12" type="curve" smooth="yes"/>
      <point x="447" y="-12"/>
      <point x="571" y="140"/>
      <point x="571" y="315" type="curve" smooth="yes"/>
      <point x="571" y="449"/>
      <point x="504" y="518"/>
      <point x="399" y="518" type="curve" smooth="yes"/>
      <point x="328" y="518"/>
      <point x="275" y="481"/>
      <point x="224" y="413" type="curve"/>
    </contour>
    <contour>
      <point x="280" y="46" type="curve" smooth="yes"/>
      <point x="234" y="46"/>
      <point x="195" y="63"/>
      <point x="169" y="93" type="curve"/>
      <point x="208" y="322" type="line"/>
      <point x="270" y="414"/>
      <point x="325" y="461"/>
      <point x="385" y="461" type="curve" smooth="yes"/>
      <point x="448" y="461"/>
      <point x="477" y="414"/>
      <point x="477" y="322" type="curve" smooth="yes"/>
      <point x="477" y="175"/>
      <point x="394" y="46"/>
    </contour>
  </outline>
</glyph>
<glyph name="dcroat" format="1">
  <advance width="624"/>
  <unicode hex="0111"/>
  <outline>
    <contour>
      <point x="488" y="-7" type="curve" smooth="yes"/>
      <point x="528" y="-7"/>
      <point x="559" y="7"/>
      <point x="579" y="22" type="curve"/>
      <point x="589" y="74" type="line"/>
      <point x="578" y="70"/>
      <point x="544" y="53"/>
      <point x="514" y="53" type="curve" smooth="yes"/>
      <point x="492" y="53"/>
      <point x="482" y="61"/>
      <point x="482" y="80" type="curve" smooth="yes"/>
      <point x="482" y="95"/>
      <point x="486" y="119"/>
      <point x="493" y="161" type="curve"/>
      <point x="565" y="581" type="line"/>
      <point x="670" y="581" type="line"/>
      <point x="680" y="633" type="line"/>
      <point x="574" y="633" type="line"/>
      <point x="592" y="735" type="line"/>
      <point x="504" y="735" type="line"/>
      <point x="486" y="633" type="line"/>
      <point x="283" y="633" type="line"/>
      <point x="273" y="581" type="line"/>
      <point x="477" y="581" type="line"/>
      <point x="460" y="483" type="line"/>
      <point x="427" y="505"/>
      <point x="387" y="518"/>
      <point x="338" y="518" type="curve" smooth="yes"/>
      <point x="168" y="518"/>
      <point x="44" y="366"/>
      <point x="44" y="191" type="curve" smooth="yes"/>
      <point x="44" y="57"/>
      <point x="111" y="-12"/>
      <point x="216" y="-12" type="curve" smooth="yes"/>
      <point x="290" y="-12"/>
      <point x="346" y="30"/>
      <point x="400" y="104" type="curve"/>
      <point x="398" y="94"/>
      <point x="398" y="86"/>
      <point x="398" y="77" type="curve" smooth="yes"/>
      <point x="398" y="23"/>
      <point x="434" y="-7"/>
    </contour>
    <contour>
      <point x="335" y="460" type="curve" smooth="yes"/>
      <point x="382" y="460"/>
      <point x="422" y="443"/>
      <point x="448" y="411" type="curve"/>
      <point x="409" y="188" type="line"/>
      <point x="346" y="94"/>
      <point x="291" y="45"/>
      <point x="230" y="45" type="curve" smooth="yes"/>
      <point x="167" y="45"/>
      <point x="138" y="92"/>
      <point x="138" y="184" type="curve" smooth="yes"/>
      <point x="138" y="331"/>
      <point x="221" y="460"/>
    </contour>
  </outline>
</glyph>
<glyph name="Hbar" format="1">
  <advance width="832"/>
  <unicode hex="0126"/>
  <outline>
    <contour>
      <point x="-10" y="0" type="line"/>
      <point x="275" y="0" type="line"/>
      <point x="284" y="47" type="line"/>
      <point x="275" y="47" type="line" smooth="yes"/>
      <point x="237" y="47"/>
      <point x="188" y="50"/>
      <point x="189" y="57" type="curve" smooth="yes"/>
      <point x="239" y="337" type="line"/>
      <point x="602" y="337" type="line"/>
      <point x="552" y="57" type="line" smooth="yes"/>
      <point x="551" y="50"/>
      <point x="502" y="47"/>
      <point x="464" y="47" type="curve" smooth="yes"/>
      <point x="455" y="47" type="line"/>
      <point x="446" y="0" type="line"/>
      <point x="730" y="0" type="line"/>
      <point x="739" y="47" type="line"/>
      <point x="728" y="47" type="line" smooth="yes"/>
      <point x="679" y="47"/>
      <point x="644" y="54"/>
      <point x="649" y="83" type="curve" smooth="yes"/>
      <point x="723" y="497" type="line"/>
      <point x="825" y="497" type="line"/>
      <point x="825" y="549" type="line"/>
      <point x="732" y="549" type="line"/>
      <point x="746" y="627" type="line" smooth="yes"/>
      <point x="751" y="656"/>
      <point x="788" y="663"/>
      <point x="837" y="663" type="curve" smooth="yes"/>
      <point x="848" y="663" type="line"/>
      <point x="857" y="710" type="line"/>
      <point x="572" y="710" type="line"/>
      <point x="563" y="663" type="line"/>
      <point x="572" y="663" type="line" smooth="yes"/>
      <point x="610" y="663"/>
      <point x="659" y="660"/>
      <point x="658" y="653" type="curve" smooth="yes"/>
      <point x="640" y="549" type="line"/>
      <point x="277" y="549" type="line"/>
      <point x="295" y="653" type="line" smooth="yes"/>
      <point x="296" y="660"/>
      <point x="345" y="663"/>
      <point x="383" y="663" type="curve" smooth="yes"/>
      <point x="392" y="663" type="line"/>
      <point x="401" y="710" type="line"/>
      <point x="117" y="710" type="line"/>
      <point x="108" y="663" type="line"/>
      <point x="119" y="663" type="line" smooth="yes"/>
      <point x="168" y="663"/>
      <point x="203" y="656"/>
      <point x="198" y="627" type="curve" smooth="yes"/>
      <point x="184" y="549" type="line"/>
      <point x="82" y="549" type="line"/>
      <point x="82" y="497" type="line"/>
      <point x="175" y="497" type="line"/>
      <point x="101" y="83" type="line" smooth="yes"/>
      <point x="96" y="54"/>
      <point x="59" y="47"/>
      <point x="10" y="47" type="curve" smooth="yes"/>
      <point x="-1" y="47" type="line"/>
    </contour>
    <contour>
      <point x="249" y="395" type="line"/>
      <point x="267" y="497" type="line"/>
      <point x="630" y="497" type="line"/>
      <point x="612" y="395" type="line"/>
    </contour>
  </outline>
</glyph>
<glyph name="oe" format="1">
  <advance width="908"/>
  <unicode hex="0153"/>
  <outline>
    <contour>
      <point x="320" y="518" type="curve"/>
      <point x="168" y="518"/>
      <point x="44" y="399"/>
      <point x="44" y="220" type="curve" smooth="yes"/>
      <point x="44" y="78"/>
      <point x="141" y="-12"/>
      <point x="265" y="-12" type="curve"/>
      <point x="355" y="-12"/>
      <point x="432" y="33"/>
      <point x="478" y="110" type="curve"/>
      <point x="510" y="28"/>
      <point x="580" y="-12"/>
      <point x="664" y="-12" type="curve" smooth="yes"/>
      <point x="746" y="-12"/>
      <point x="806" y="26"/>
      <point x="849" y="69" type="curve"/>
      <point x="825" y="123" type="line"/>
      <point x="785" y="82"/>
      <point x="741" y="45"/>
      <point x="672" y="45" type="curve" smooth="yes"/>
      <point x="595" y="45"/>
      <point x="540" y="93"/>
      <point x="537" y="198" type="curve"/>
      <point x="765" y="202"/>
      <point x="874" y="270"/>
      <point x="874" y="386" type="curve" smooth="yes"/>
      <point x="874" y="464"/>
      <point x="812" y="518"/>
      <point x="715" y="518" type="curve" smooth="yes"/>
      <point x="621" y="518"/>
      <point x="550" y="466"/>
      <point x="507" y="392" type="curve"/>
      <point x="476" y="471"/>
      <point x="407" y="518"/>
    </contour>
    <contour>
      <point x="708" y="461" type="curve" smooth="yes"/>
      <point x="761" y="461"/>
      <point x="787" y="432"/>
      <point x="787" y="387" type="curve" smooth="yes"/>
      <point x="787" y="302"/>
      <point x="729" y="255"/>
      <point x="539" y="249" type="curve"/>
      <point x="552" y="374"/>
      <point x="621" y="461"/>
    </contour>
    <contour>
      <point x="267" y="45" type="curve"/>
      <point x="188" y="45"/>
      <point x="138" y="106"/>
      <point x="138" y="206" type="curve" smooth="yes"/>
      <point x="138" y="325"/>
      <point x="196" y="461"/>
      <point x="318" y="461" type="curve"/>
      <point x="398" y="461"/>
      <point x="447" y="400"/>
      <point x="447" y="300" type="curve" smooth="yes"/>
      <point x="447" y="181"/>
      <point x="389" y="45"/>
    </contour>
  </outline>
</glyph>
<glyph name="oogonek" format="1">
  <advance width="583"/>
  <unicode hex="01EB"/>
  <outline>
    <contour>
      <point x="368" y="-192" type="curve"/>
      <point x="345" y="-156" type="line"/>
      <point x="331" y="-170"/>
      <point x="312" y="-184"/>
      <point x="291" y="-184" type="curve" smooth="yes"/>
      <point x="269" y="-184"/>
      <point x="255" y="-172"/>
      <point x="255" y="-144" type="curve" smooth="yes"/>
      <point x="255" y="-70"/>
      <point x="350" y="-20"/>
      <point x="430" y="37" type="curve" smooth="yes"/>
      <point x="504" y="90"/>
      <point x="547" y="174"/>
      <point x="547" y="284" type="curve" smooth="yes"/>
      <point x="547" y="426"/>
      <point x="448" y="518"/>
      <point x="318" y="518" type="curve" smooth="yes"/>
      <point x="166" y="518"/>
      <point x="44" y="399"/>
      <point x="44" y="220" type="curve" smooth="yes"/>
      <point x="44" y="78"/>
      <point x="144" y="-12"/>
      <point x="273" y="-12" type="curve" smooth="yes"/>
      <point x="277" y="-12"/>
      <point x="282" y="-12"/>
      <point x="286" y="-12" type="curve"/>
      <point x="205" y="-55"/>
      <point x="162" y="-94"/>
      <point x="162" y="-149" type="curve" smooth="yes"/>
      <point x="162" y="-205"/>
      <point x="208" y="-236"/>
      <point x="269" y="-236" type="curve" smooth="yes"/>
      <point x="315" y="-236"/>
      <point x="347" y="-216"/>
    </contour>
    <contour>
      <point x="317" y="461" type="curve" smooth="yes"/>
      <point x="401" y="461"/>
      <point x="453" y="400"/>
      <point x="453" y="300" type="curve" smooth="yes"/>
      <point x="453" y="181"/>
      <point x="396" y="45"/>
      <point x="274" y="45" type="curve" smooth="yes"/>
      <point x="191" y="45"/>
      <point x="138" y="106"/>
      <point x="138" y="206" type="curve" smooth="yes"/>
      <point x="138" y="325"/>
      <point x="195" y="461"/>
    </contour>
  </outline>
</glyph>
<glyph name="caron" format="1">
  <advance width="500"/>
  <unicode hex="02C7"/>
  <outline>
    <contour>
      <point x="261" y="570" type="line"/>
      <point x="337" y="570" type="line"/>
      <point x="475" y="727" type="line"/>
      <point x="477" y="737" type="line"/>
      <point x="435" y="737" type="line"/>
      <point x="308" y="632" type="line"/>
      <point x="221" y="737" type="line"/>
      <point x="181" y="737" type="line"/>
      <point x="179" y="727" type="line"/>
    </contour>
    <contour>
      <point x="255" y="525" type="move" name="_top"/>
    </contour>
  </outline>
</glyph>
<glyph name="hungarumlaut" format="1">
  <advance width="500"/>
  <unicode hex="02DD"/>
  <outline>
    <contour>
      <point x="217" y="694" type="curve" smooth="yes"/>
      <point x="178" y="586" type="line"/>
      <point x="175" y="566" type="line"/>
      <point x="205" y="566" type="line"/>
      <point x="284" y="657" type="line" smooth="yes"/>
      <point x="306" y="682"/>
      <point x="318" y="699"/>
      <point x="318" y="722" type="curve" smooth="yes"/>
      <point x="318" y="743"/>
      <point x="302" y="759"/>
      <point x="278" y="759" type="curve" smooth="yes"/>
      <point x="250" y="759"/>
      <point x="234" y="741"/>
    </contour>
    <contour>
      <point x="370" y="694" type="curve" smooth="yes"/>
      <point x="331" y="586" type="line"/>
      <point x="328" y="566" type="line"/>
      <point x="358" y="566" type="line"/>
      <point x="437" y="657" type="line" smooth="yes"/>
      <point x="459" y="682"/>
      <point x="471" y="699"/>
      <point x="471" y="722" type="curve" smooth="yes"/>
      <point x="471" y="743"/>
      <point x="455" y="759"/>
      <point x="431" y="759" type="curve" smooth="yes"/>
      <point x="403" y="759"/>
      <point x="387" y="741"/>
    </contour>
    <contour>
      <point x="255" y="525" type="move" name="_top"/>
    </contour>
  </outline>
</glyph>
<glyph name="minute" format="1">
  <advance width="243"/>
  <unicode hex="2032"/>
  <outline>
    <contour>
      <point x="189" y="710" type="line"/>
      <point x="176" y="630"/>
      <point x="148" y="595"/>
      <point x="126" y="475" type="curve"/>
      <point x="75" y="475" type="line"/>
      <point x="97" y="597"/>
      <point x="83" y="632"/>
      <point x="96" y="710" type="curve"/>
    </contour>
  </outline>
</glyph>
<glyph name="guilsinglright" format="1">
  <advance width="291"/>
  <unicode hex="203A"/>
  <outline>
    <contour>
      <point x="251" y="235" type="line"/>
      <point x="259" y="274" type="line"/>
      <point x="135" y="455" type="line"/>
      <point x="85" y="455" type="line"/>
      <point x="166" y="263" type="line"/>
      <point x="12" y="75" type="line"/>
      <point x="62" y="75" type="line"/>
    </contour>
  </outline>
</glyph>
<glyph name="naira" format="1">
  <advance width="560"/>
  <unicode hex="20A6"/>
  <outline>
    <contour>
      <point x="-42" y="0" type="line"/>
      <point x="171" y="0" type="line"/>
      <point x="180" y="47" type="line"/>
      <point x="166" y="47" type="line" smooth="yes"/>
      <point x="135" y="47"/>
      <point x="100" y="55"/>
      <point x="101" y="62" type="curve" smooth="yes"/>
      <point x="134" y="247" type="line"/>
      <point x="272" y="247" type="line"/>
      <point x="318" y="0" type="line"/>
      <point x="415" y="0" type="line"/>
      <point x="459" y="247" type="line"/>
      <point x="533" y="247" type="line"/>
      <point x="542" y="299" type="line"/>
      <point x="468" y="299" type="line"/>
      <point x="487" y="406" type="line"/>
      <point x="561" y="406" type="line"/>
      <point x="570" y="458" type="line"/>
      <point x="496" y="458" type="line"/>
      <point x="525" y="622" type="line" smooth="yes"/>
      <point x="530" y="651"/>
      <point x="557" y="663"/>
      <point x="590" y="663" type="curve" smooth="yes"/>
      <point x="601" y="663" type="line"/>
      <point x="610" y="710" type="line"/>
      <point x="397" y="710" type="line"/>
      <point x="388" y="663" type="line"/>
      <point x="402" y="663" type="line" smooth="yes"/>
      <point x="433" y="663"/>
      <point x="468" y="655"/>
      <point x="467" y="648" type="curve" smooth="yes"/>
      <point x="434" y="458" type="line"/>
      <point x="311" y="458" type="line"/>
      <point x="265" y="710" type="line"/>
      <point x="84" y="710" type="line"/>
      <point x="75" y="663" type="line"/>
      <point x="86" y="663" type="line" smooth="yes"/>
      <point x="119" y="663"/>
      <point x="143" y="656"/>
      <point x="138" y="627" type="curve" smooth="yes"/>
      <point x="108" y="458" type="line"/>
      <point x="34" y="458" type="line"/>
      <point x="25" y="406" type="line"/>
      <point x="99" y="406" type="line"/>
      <point x="80" y="299" type="line"/>
      <point x="6" y="299" type="line"/>
      <point x="-3" y="247" type="line"/>
      <point x="71" y="247" type="line"/>
      <point x="43" y="88" type="line" smooth="yes"/>
      <point x="38" y="59"/>
      <point x="11" y="47"/>
      <point x="-22" y="47" type="curve" smooth="yes"/>
      <point x="-33" y="47" type="line"/>
    </contour>
    <contour>
      <point x="143" y="299" type="line"/>
      <point x="201" y="627" type="line"/>
      <point x="262" y="299" type="line"/>
    </contour>
    <contour>
      <point x="321" y="406" type="line"/>
      <point x="424" y="406" type="line"/>
      <point x="374" y="119" type="line"/>
    </contour>
  </outline>
</glyph>
<glyph name="uni20AB" format="1">
  <advance width="560"/>
  <unicode hex="20AB"/>
  <outline>
    <contour>
      <point x="424" y="-7" type="curve" smooth="yes"/>
      <point x="463" y="-7"/>
      <point x="492" y="7"/>
      <point x="512" y="22" type="curve"/>
      <point x="522" y="74" type="line"/>
      <point x="511" y="70"/>
      <point x="479" y="53"/>
      <point x="450" y="53" type="curve" smooth="yes"/>
      <point x="431" y="53"/>
      <point x="423" y="61"/>
      <point x="423" y="80" type="curve" smooth="yes"/>
      <point x="423" y="95"/>
      <point x="427" y="119"/>
      <point x="434" y="161" type="curve"/>
      <point x="506" y="581" type="line"/>
      <point x="603" y="581" type="line"/>
      <point x="613" y="633" type="line"/>
      <point x="515" y="633" type="line"/>
      <point x="533" y="735" type="line"/>
      <point x="445" y="735" type="line"/>
      <point x="427" y="633" type="line"/>
      <point x="224" y="633" type="line"/>
      <point x="214" y="581" type="line"/>
      <point x="418" y="581" type="line"/>
      <point x="402" y="485" type="line"/>
      <point x="372" y="506"/>
      <point x="337" y="518"/>
      <point x="295" y="518" type="curve" smooth="yes"/>
      <point x="131" y="518"/>
      <point x="14" y="362"/>
      <point x="14" y="187" type="curve" smooth="yes"/>
      <point x="14" y="53"/>
      <point x="78" y="-12"/>
      <point x="175" y="-12" type="curve" smooth="yes"/>
      <point x="242" y="-12"/>
      <point x="291" y="26"/>
      <point x="340" y="96" type="curve"/>
      <point x="339" y="89"/>
      <point x="339" y="83"/>
      <point x="339" y="77" type="curve" smooth="yes"/>
      <point x="339" y="23"/>
      <point x="373" y="-7"/>
    </contour>
    <contour>
      <point x="108" y="180" type="curve" smooth="yes"/>
      <point x="108" y="327"/>
      <point x="183" y="460"/>
      <point x="290" y="460" type="curve" smooth="yes"/>
      <point x="330" y="460"/>
      <point x="365" y="444"/>
      <point x="390" y="415" type="curve"/>
      <point x="350" y="183" type="line"/>
      <point x="292" y="91"/>
      <point x="244" y="45"/>
      <point x="188" y="45" type="curve" smooth="yes"/>
      <point x="134" y="45"/>
      <point x="108" y="88"/>
    </contour>
    <contour>
      <point x="34" y="-128" type="line"/>
      <point x="24" y="-188" type="line"/>
      <point x="461" y="-188" type="line"/>
      <point x="471" y="-128" type="line"/>
    </contour>
  </outline>
</glyph>
<glyph name="servicemark" format="1">
  <advance width="870"/>
  <unicode hex="2120"/>
  <outline>
    <contour>
      <point x="146" y="632" type="curve" smooth="yes"/>
      <point x="146" y="575"/>
      <point x="187" y="556"/>
      <point x="236" y="536" type="curve" smooth="yes"/>
      <point x="291" y="514"/>
      <point x="317" y="500"/>
      <point x="317" y="473" type="curve" smooth="yes"/>
      <point x="317" y="446"/>
      <point x="298" y="427"/>
      <point x="257" y="427" type="curve" smooth="yes"/>
      <point x="207" y="427"/>
      <point x="175" y="459"/>
      <point x="163" y="500" type="curve"/>
      <point x="119" y="500" type="line"/>
      <point x="100" y="391" type="line"/>
      <point x="138" y="391" type="line"/>
      <point x="149" y="438" type="line"/>
      <point x="171" y="406"/>
      <point x="206" y="386"/>
      <point x="255" y="386" type="curve" smooth="yes"/>
      <point x="326" y="386"/>
      <point x="371" y="420"/>
      <point x="371" y="484" type="curve" smooth="yes"/>
      <point x="371" y="532"/>
      <point x="336" y="557"/>
      <point x="265" y="587" type="curve" smooth="yes"/>
      <point x="234" y="601"/>
      <point x="198" y="610"/>
      <point x="198" y="641" type="curve" smooth="yes"/>
      <point x="198" y="666"/>
      <point x="218" y="679"/>
      <point x="252" y="679" type="curve" smooth="yes"/>
      <point x="289" y="679"/>
      <point x="316" y="656"/>
      <point x="326" y="623" type="curve"/>
      <point x="368" y="623" type="line"/>
      <point x="384" y="716" type="line"/>
      <point x="348" y="716" type="line"/>
      <point x="338" y="680" type="line"/>
      <point x="321" y="706"/>
      <point x="289" y="720"/>
      <point x="252" y="720" type="curve" smooth="yes"/>
      <point x="187" y="720"/>
      <point x="146" y="687"/>
    </contour>
    <contour>
      <point x="405" y="395" type="line"/>
      <point x="527" y="395" type="line"/>
      <point x="533" y="430" type="line"/>
      <point x="531" y="430" type="line" smooth="yes"/>
      <point x="521" y="430"/>
      <point x="501" y="433"/>
      <point x="501" y="435" type="curve" smooth="yes"/>
      <point x="544" y="680" type="line"/>
      <point x="585" y="394" type="line"/>
      <point x="633" y="394" type="line"/>
      <point x="777" y="680" type="line"/>
      <point x="734" y="435" type="line" smooth="yes"/>
      <point x="734" y="433"/>
      <point x="715" y="430"/>
      <point x="703" y="430" type="curve" smooth="yes"/>
      <point x="700" y="430" type="line"/>
      <point x="694" y="395" type="line"/>
      <point x="829" y="395" type="line"/>
      <point x="835" y="430" type="line"/>
      <point x="828" y="430" type="line" smooth="yes"/>
      <point x="806" y="430"/>
      <point x="792" y="434"/>
      <point x="794" y="447" type="curve" smooth="yes"/>
      <point x="832" y="659" type="line" smooth="yes"/>
      <point x="834" y="673"/>
      <point x="850" y="675"/>
      <point x="872" y="675" type="curve" smooth="yes"/>
      <point x="879" y="675" type="line"/>
      <point x="885" y="710" type="line"/>
      <point x="747" y="710" type="line"/>
      <point x="628" y="467" type="line"/>
      <point x="599" y="710" type="line"/>
      <point x="461" y="710" type="line"/>
      <point x="455" y="675" type="line"/>
      <point x="461" y="675" type="line" smooth="yes"/>
      <point x="482" y="675"/>
      <point x="498" y="673"/>
      <point x="496" y="659" type="curve" smooth="yes"/>
      <point x="458" y="447" type="line" smooth="yes"/>
      <point x="456" y="434"/>
      <point x="438" y="430"/>
      <point x="417" y="430" type="curve"/>
      <point x="411" y="430" type="line"/>
    </contour>
  </outline>
</glyph>
<glyph name="trademark" format="1">
  <advance width="856"/>
  <unicode hex="2122"/>
  <outline>
    <contour>
      <point x="114" y="710" type="line"/>
      <point x="95" y="604" type="line"/>
      <point x="132" y="604" type="line"/>
      <point x="145" y="652" type="line" smooth="yes"/>
      <point x="149" y="666"/>
      <point x="165" y="673"/>
      <point x="203" y="673" type="curve" smooth="yes"/>
      <point x="226" y="673" type="line"/>
      <point x="186" y="447" type="line" smooth="yes"/>
      <point x="184" y="434"/>
      <point x="164" y="430"/>
      <point x="144" y="430" type="curve" smooth="yes"/>
      <point x="134" y="430" type="line"/>
      <point x="128" y="395" type="line"/>
      <point x="286" y="395" type="line"/>
      <point x="292" y="430" type="line"/>
      <point x="280" y="430" type="line" smooth="yes"/>
      <point x="256" y="430"/>
      <point x="242" y="434"/>
      <point x="244" y="447" type="curve" smooth="yes"/>
      <point x="284" y="673" type="line"/>
      <point x="307" y="673" type="line" smooth="yes"/>
      <point x="345" y="673"/>
      <point x="360" y="666"/>
      <point x="359" y="652" type="curve" smooth="yes"/>
      <point x="354" y="604" type="line"/>
      <point x="391" y="604" type="line"/>
      <point x="410" y="710" type="line"/>
    </contour>
    <contour>
      <point x="391" y="395" type="line"/>
      <point x="513" y="395" type="line"/>
      <point x="519" y="430" type="line"/>
      <point x="517" y="430" type="line" smooth="yes"/>
      <point x="507" y="430"/>
      <point x="487" y="433"/>
      <point x="487" y="435" type="curve" smooth="yes"/>
      <point x="530" y="680" type="line"/>
      <point x="571" y="394" type="line"/>
      <point x="619" y="394" type="line"/>
      <point x="763" y="680" type="line"/>
      <point x="720" y="435" type="line" smooth="yes"/>
      <point x="720" y="433"/>
      <point x="701" y="430"/>
      <point x="689" y="430" type="curve" smooth="yes"/>
      <point x="686" y="430" type="line"/>
      <point x="680" y="395" type="line"/>
      <point x="815" y="395" type="line"/>
      <point x="821" y="430" type="line"/>
      <point x="814" y="430" type="line" smooth="yes"/>
      <point x="792" y="430"/>
      <point x="778" y="434"/>
      <point x="780" y="447" type="curve" smooth="yes"/>
      <point x="818" y="659" type="line" smooth="yes"/>
      <point x="820" y="673"/>
      <point x="836" y="675"/>
      <point x="858" y="675" type="curve" smooth="yes"/>
      <point x="865" y="675" type="line"/>
      <point x="871" y="710" type="line"/>
      <point x="733" y="710" type="line"/>
      <point x="614" y="467" type="line"/>
      <point x="585" y="710" type="line"/>
      <point x="447" y="710" type="line"/>
      <point x="441" y="675" type="line"/>
      <point x="447" y="675" type="line" smooth="yes"/>
      <point x="468" y="675"/>
      <point x="484" y="673"/>
      <point x="482" y="659" type="curve" smooth="yes"/>
      <point x="444" y="447" type="line" smooth="yes"/>
      <point x="442" y="434"/>
      <point x="424" y="430"/>
      <point x="403" y="430" type="curve"/>
      <point x="397" y="430" type="line"/>
    </contour>
  </outline>
</glyph>
<glyph name="arrowup" format="1">
  <advance width="639"/>
  <unicode hex="2191"/>
  <outline>
    <contour>
      <point x="114" y="312" type="line"/>
      <point x="127" y="302" type="line"/>
      <point x="292" y="441" type="line"/>
      <point x="292" y="41" type="line"/>
      <point x="350" y="41" type="line"/>
      <point x="350" y="441" type="line"/>
      <point x="515" y="302" type="line"/>
      <point x="528" y="312" type="line"/>
      <point x="328" y="670" type="line"/>
      <point x="314" y="670" type="line"/>
    </contour>
  </outline>
</glyph>
<glyph name="partialdiff" format="1">
  <advance width="570"/>
  <unicode hex="2202"/>
  <outline>
    <contour>
      <point x="234" y="-12" type="curve" smooth="yes"/>
      <point x="401" y="-12"/>
      <point x="517" y="200"/>
      <point x="517" y="457" type="curve" smooth="yes"/>
      <point x="517" y="665"/>
      <point x="431" y="748"/>
      <point x="308" y="748" type="curve" smooth="yes"/>
      <point x="263" y="748"/>
      <point x="212" y="735"/>
      <point x="167" y="706" type="curve"/>
      <point x="192" y="662" type="line"/>
      <point x="228" y="681"/>
      <point x="264" y="694"/>
      <point x="302" y="694" type="curve" smooth="yes"/>
      <point x="377" y="694"/>
      <point x="431" y="644"/>
      <point x="431" y="489" type="curve" smooth="yes"/>
      <point x="431" y="489" type="line"/>
      <point x="407" y="504"/>
      <point x="375" y="518"/>
      <point x="323" y="518" type="curve" smooth="yes"/>
      <point x="175" y="518"/>
      <point x="47" y="365"/>
      <point x="47" y="197" type="curve" smooth="yes"/>
      <point x="47" y="83"/>
      <point x="110" y="-12"/>
    </contour>
    <contour>
      <point x="137" y="209" type="curve" smooth="yes"/>
      <point x="137" y="353"/>
      <point x="215" y="464"/>
      <point x="319" y="464" type="curve" smooth="yes"/>
      <point x="361" y="464"/>
      <point x="401" y="449"/>
      <point x="429" y="421" type="curve"/>
      <point x="416" y="227"/>
      <point x="351" y="42"/>
      <point x="236" y="42" type="curve" smooth="yes"/>
      <point x="170" y="42"/>
      <point x="137" y="97"/>
    </contour>
  </outline>
</glyph>
<glyph name="Omega" format="1">
  <advance width="820"/>
  <unicode hex="A7B6"/>
  <outline>
    <contour>
      <point x="2" y="0" type="line"/>
      <point x="305" y="0" type="line"/>
      <point x="319" y="82" type="line"/>
      <point x="261" y="165"/>
      <point x="208" y="266"/>
      <point x="208" y="400" type="curve" smooth="yes"/>
      <point x="208" y="559"/>
      <point x="308" y="660"/>
      <point x="458" y="660" type="curve" smooth="yes"/>
      <point x="584" y="660"/>
      <point x="667" y="587"/>
      <point x="667" y="457" type="curve" smooth="yes"/>
      <point x="667" y="294"/>
      <point x="559" y="183"/>
      <point x="436" y="82" type="curve"/>
      <point x="422" y="0" type="line"/>
      <point x="725" y="0" type="line"/>
      <point x="758" y="192" type="line"/>
      <point x="701" y="192" type="line"/>
      <point x="679" y="115" type="line" smooth="yes"/>
      <point x="669" y="79"/>
      <point x="638" y="72"/>
      <point x="566" y="72" type="curve" smooth="yes"/>
      <point x="498" y="72" type="line"/>
      <point x="629" y="177"/>
      <point x="760" y="290"/>
      <point x="760" y="454" type="curve" smooth="yes"/>
      <point x="760" y="612"/>
      <point x="644" y="720"/>
      <point x="458" y="720" type="curve" smooth="yes"/>
      <point x="254" y="720"/>
      <point x="115" y="583"/>
      <point x="115" y="416" type="curve" smooth="yes"/>
      <point x="115" y="291"/>
      <point x="190" y="167"/>
      <point x="264" y="72" type="curve"/>
      <point x="185" y="72" type="line" smooth="yes"/>
      <point x="102" y="72"/>
      <point x="86" y="85"/>
      <point x="88" y="115" type="curve" smooth="yes"/>
      <point x="92" y="192" type="line"/>
      <point x="35" y="192" type="line"/>
    </contour>
  </outline>
</glyph>
<glyph name="breve_grave" format="1">
  <advance width="510"/>
  <outline>
    <contour>
      <point x="283" y="862" type="line" smooth="yes"/>
      <point x="267" y="907"/>
      <point x="253" y="924"/>
      <point x="223" y="924" type="curve" smooth="yes"/>
      <point x="196" y="924"/>
      <point x="177" y="905"/>
      <point x="177" y="880" type="curve" smooth="yes"/>
      <point x="177" y="861"/>
      <point x="189" y="845"/>
      <point x="207" y="825" type="curve" smooth="yes"/>
      <point x="292" y="733" type="line"/>
      <point x="323" y="733" type="line"/>
      <point x="323" y="753" type="line"/>
    </contour>
    <contour>
      <point x="284" y="579" type="curve" smooth="yes"/>
      <point x="360" y="579"/>
      <point x="422" y="619"/>
      <point x="436" y="736" type="curve"/>
      <point x="379" y="736" type="line"/>
      <point x="365" y="673"/>
      <point x="342" y="647"/>
      <point x="289" y="647" type="curve" smooth="yes"/>
      <point x="229" y="647"/>
      <point x="215" y="682"/>
      <point x="218" y="736" type="curve"/>
      <point x="158" y="736" type="line"/>
      <point x="157" y="731"/>
      <point x="156" y="719"/>
      <point x="156" y="711" type="curve" smooth="yes"/>
      <point x="155" y="631"/>
      <point x="199" y="579"/>
    </contour>
    <contour>
      <point x="249" y="515" type="move" name="_top"/>
    </contour>
  </outline>
</glyph>
<glyph name="breve_tilde" format="1">
  <advance width="500"/>
  <outline>
    <contour>
      <point x="229" y="892" type="curve" smooth="yes"/>
      <point x="175" y="892"/>
      <point x="137" y="860"/>
      <point x="119" y="783" type="curve"/>
      <point x="166" y="761" type="line"/>
      <point x="177" y="804"/>
      <point x="193" y="825"/>
      <point x="217" y="825" type="curve" smooth="yes"/>
      <point x="253" y="825"/>
      <point x="269" y="764"/>
      <point x="343" y="764" type="curve" smooth="yes"/>
      <point x="394" y="764"/>
      <point x="435" y="796"/>
      <point x="456" y="872" type="curve"/>
      <point x="409" y="895" type="line"/>
      <point x="396" y="855"/>
      <point x="381" y="832"/>
      <point x="356" y="832" type="curve" smooth="yes"/>
      <point x="317" y="832"/>
      <point x="296" y="892"/>
    </contour>
    <contour>
      <point x="271" y="647" type="curve" smooth="yes"/>
      <point x="211" y="647"/>
      <point x="197" y="681"/>
      <point x="201" y="720" type="curve"/>
      <point x="141" y="720" type="line"/>
      <point x="140" y="716"/>
      <point x="139" y="706"/>
      <point x="139" y="699" type="curve" smooth="yes"/>
      <point x="138" y="630"/>
      <point x="182" y="579"/>
      <point x="266" y="579" type="curve" smooth="yes"/>
      <point x="342" y="579"/>
      <point x="404" y="618"/>
      <point x="419" y="720" type="curve"/>
      <point x="362" y="720" type="line"/>
      <point x="347" y="672"/>
      <point x="324" y="647"/>
    </contour>
    <contour>
      <point x="250" y="524" type="move" name="_top"/>
    </contour>
  </outline>
</glyph>
<glyph name="brevebelow" format="1">
  <advance width="500"/>
  <outline>
    <contour>
      <point x="284" y="-240" type="curve" smooth="yes"/>
      <point x="360" y="-240"/>
      <point x="422" y="-200"/>
      <point x="436" y="-83" type="curve"/>
      <point x="379" y="-83" type="line"/>
      <point x="365" y="-146"/>
      <point x="342" y="-172"/>
      <point x="289" y="-172" type="curve" smooth="yes"/>
      <point x="229" y="-172"/>
      <point x="215" y="-137"/>
      <point x="218" y="-83" type="curve"/>
      <point x="158" y="-83" type="line"/>
      <point x="157" y="-88"/>
      <point x="156" y="-100"/>
      <point x="156" y="-108" type="curve" smooth="yes"/>
      <point x="155" y="-188"/>
      <point x="199" y="-240"/>
    </contour>
    <contour>
      <point x="250" y="-46" type="move" name="_bottom"/>
    </contour>
  </outline>
</glyph>
<glyph name="carondotaccent" format="1">
  <advance width="500"/>
  <outline>
    <component base="caron"/>
    <component base="dotaccent" xOffset="54" yOffset="142"/>
    <contour>
      <point x="245" y="497" type="move" name="_top"/>
    </contour>
  </outline>
</glyph>
<glyph name="circumflexhookabove" format="1">
  <advance width="510"/>
  <outline>
    <component base="circumflex_hook"/>
    <contour>
      <point x="244" y="497" type="move" name="_top"/>
    </contour>
  </outline>
</glyph>
<glyph name="commaaccent.alt" format="1">
  <advance width="500"/>
  <outline>
    <contour>
      <point x="343" y="837" type="line"/>
      <point x="273" y="788"/>
      <point x="238" y="733"/>
      <point x="238" y="683" type="curve" smooth="yes"/>
      <point x="238" y="646"/>
      <point x="262" y="623"/>
      <point x="299" y="623" type="curve" smooth="yes"/>
      <point x="335" y="623"/>
      <point x="358" y="646"/>
      <point x="358" y="678" type="curve" smooth="yes"/>
      <point x="358" y="704"/>
      <point x="337" y="727"/>
      <point x="299" y="731" type="curve"/>
      <point x="315" y="757"/>
      <point x="354" y="783"/>
      <point x="396" y="803" type="curve"/>
    </contour>
    <contour>
      <point x="250" y="580" type="move" name="_top"/>
    </contour>
  </outline>
</glyph>
<glyph name="currency.proportional" format="1">
  <advance width="606"/>
  <outline>
    <contour>
      <point x="18" y="163" type="line"/>
      <point x="60" y="112" type="line"/>
      <point x="177" y="212" type="line"/>
      <point x="211" y="185"/>
      <point x="255" y="170"/>
      <point x="303" y="170" type="curve"/>
      <point x="340" y="170"/>
      <point x="375" y="179"/>
      <point x="405" y="195" type="curve"/>
      <point x="474" y="112" type="line"/>
      <point x="534" y="163" type="line"/>
      <point x="468" y="244" type="line"/>
      <point x="501" y="281"/>
      <point x="521" y="330"/>
      <point x="521" y="384" type="curve" smooth="yes"/>
      <point x="521" y="422"/>
      <point x="511" y="457"/>
      <point x="493" y="485" type="curve"/>
      <point x="608" y="583" type="line"/>
      <point x="566" y="634" type="line"/>
      <point x="450" y="535" type="line"/>
      <point x="415" y="562"/>
      <point x="371" y="577"/>
      <point x="323" y="577" type="curve" smooth="yes"/>
      <point x="286" y="577"/>
      <point x="251" y="568"/>
      <point x="220" y="552" type="curve"/>
      <point x="152" y="634" type="line"/>
      <point x="92" y="583" type="line"/>
      <point x="158" y="503" type="line"/>
      <point x="125" y="465"/>
      <point x="105" y="416"/>
      <point x="105" y="363" type="curve" smooth="yes"/>
      <point x="105" y="324"/>
      <point x="115" y="290"/>
      <point x="133" y="261" type="curve"/>
    </contour>
    <contour>
      <point x="307" y="240" type="curve" smooth="yes"/>
      <point x="238" y="240"/>
      <point x="185" y="283"/>
      <point x="185" y="361" type="curve" smooth="yes"/>
      <point x="185" y="447"/>
      <point x="237" y="507"/>
      <point x="319" y="507" type="curve" smooth="yes"/>
      <point x="388" y="507"/>
      <point x="441" y="464"/>
      <point x="441" y="386" type="curve" smooth="yes"/>
      <point x="441" y="300"/>
      <point x="389" y="240"/>
    </contour>
  </outline>
</glyph>
<glyph name="dieresis_acute.uc" format="1">
  <advance width="578"/>
  <outline>
    <contour>
      <point x="376" y="1033" type="curve" smooth="yes"/>
      <point x="307" y="958" type="line"/>
      <point x="303" y="936" type="line"/>
      <point x="331" y="936" type="line"/>
      <point x="421" y="977" type="line" smooth="yes"/>
      <point x="466" y="997"/>
      <point x="494" y="1015"/>
      <point x="494" y="1047" type="curve" smooth="yes"/>
      <point x="494" y="1068"/>
      <point x="478" y="1085"/>
      <point x="453" y="1085" type="curve" smooth="yes"/>
      <point x="426" y="1085"/>
      <point x="408" y="1067"/>
    </contour>
    <contour>
      <point x="231" y="793" type="curve" smooth="yes"/>
      <point x="266" y="793"/>
      <point x="292" y="816"/>
      <point x="292" y="854" type="curve" smooth="yes"/>
      <point x="292" y="891"/>
      <point x="266" y="914"/>
      <point x="231" y="914" type="curve" smooth="yes"/>
      <point x="196" y="914"/>
      <point x="170" y="891"/>
      <point x="170" y="854" type="curve" smooth="yes"/>
      <point x="170" y="816"/>
      <point x="196" y="793"/>
    </contour>
    <contour>
      <point x="449" y="793" type="curve" smooth="yes"/>
      <point x="484" y="793"/>
      <point x="510" y="816"/>
      <point x="510" y="854" type="curve" smooth="yes"/>
      <point x="510" y="891"/>
      <point x="484" y="914"/>
      <point x="449" y="914" type="curve" smooth="yes"/>
      <point x="414" y="914"/>
      <point x="388" y="891"/>
      <point x="388" y="854" type="curve" smooth="yes"/>
      <point x="388" y="816"/>
      <point x="414" y="793"/>
    </contour>
    <contour>
      <point x="289" y="694" type="move" name="_top"/>
    </contour>
  </outline>
</glyph>
<glyph name="eight.den" format="1">
  <advance width="324"/>
  <outline>
    <contour>
      <point x="-18" y="96" type="curve" smooth="yes"/>
      <point x="-18" y="37"/>
      <point x="41" y="-6"/>
      <point x="124" y="-6" type="curve"/>
      <point x="213" y="-6"/>
      <point x="267" y="37"/>
      <point x="267" y="92" type="curve" smooth="yes"/>
      <point x="267" y="133"/>
      <point x="238" y="163"/>
      <point x="193" y="178" type="curve"/>
      <point x="245" y="187"/>
      <point x="275" y="216"/>
      <point x="275" y="258" type="curve" smooth="yes"/>
      <point x="275" y="308"/>
      <point x="229" y="346"/>
      <point x="153" y="346" type="curve" smooth="yes"/>
      <point x="74" y="346"/>
      <point x="27" y="306"/>
      <point x="27" y="260" type="curve" smooth="yes"/>
      <point x="27" y="225"/>
      <point x="47" y="200"/>
      <point x="82" y="187" type="curve"/>
      <point x="21" y="178"/>
      <point x="-18" y="146"/>
    </contour>
    <contour>
      <point x="149" y="200" type="curve"/>
      <point x="115" y="200"/>
      <point x="98" y="221"/>
      <point x="98" y="248" type="curve" smooth="yes"/>
      <point x="98" y="259"/>
      <point x="100" y="269"/>
      <point x="103" y="276" type="curve" smooth="yes"/>
      <point x="112" y="296"/>
      <point x="129" y="306"/>
      <point x="153" y="306" type="curve"/>
      <point x="187" y="306"/>
      <point x="204" y="285"/>
      <point x="204" y="258" type="curve" smooth="yes"/>
      <point x="204" y="247"/>
      <point x="202" y="237"/>
      <point x="199" y="230" type="curve" smooth="yes"/>
      <point x="190" y="210"/>
      <point x="173" y="200"/>
    </contour>
    <contour>
      <point x="125" y="35" type="curve" smooth="yes"/>
      <point x="85" y="35"/>
      <point x="58" y="59"/>
      <point x="58" y="93" type="curve" smooth="yes"/>
      <point x="58" y="105"/>
      <point x="60" y="118"/>
      <point x="65" y="128" type="curve" smooth="yes"/>
      <point x="76" y="150"/>
      <point x="98" y="161"/>
      <point x="126" y="161" type="curve" smooth="yes"/>
      <point x="168" y="161"/>
      <point x="193" y="137"/>
      <point x="193" y="103" type="curve" smooth="yes"/>
      <point x="193" y="91"/>
      <point x="191" y="78"/>
      <point x="186" y="68" type="curve" smooth="yes"/>
      <point x="175" y="46"/>
      <point x="155" y="35"/>
    </contour>
  </outline>
</glyph>
<glyph name="f_f_h" format="1">
  <advance width="1240"/>
  <outline>
    <contour>
      <point x="125" y="-223" type="line"/>
      <point x="233" y="454" type="line"/>
      <point x="451" y="454" type="line"/>
      <point x="367" y="-193" type="line"/>
      <point x="437" y="-193" type="line"/>
      <point x="541" y="454" type="line"/>
      <point x="693" y="454" type="line"/>
      <point x="703" y="508" type="line"/>
      <point x="550" y="508" type="line"/>
      <point x="559" y="563" type="line" smooth="yes"/>
      <point x="575" y="663"/>
      <point x="612" y="696"/>
      <point x="676" y="696" type="curve" smooth="yes"/>
      <point x="731" y="696"/>
      <point x="771" y="678"/>
      <point x="799" y="652" type="curve"/>
      <point x="685" y="0" type="line"/>
      <point x="774" y="0" type="line"/>
      <point x="831" y="329" type="line"/>
      <point x="892" y="414"/>
      <point x="946" y="455"/>
      <point x="1002" y="455" type="curve" smooth="yes"/>
      <point x="1045" y="455"/>
      <point x="1061" y="431"/>
      <point x="1061" y="392" type="curve" smooth="yes"/>
      <point x="1061" y="376"/>
      <point x="1058" y="355"/>
      <point x="1051" y="321" type="curve" smooth="yes"/>
      <point x="1023" y="179" type="line" smooth="yes"/>
      <point x="1011" y="120"/>
      <point x="1008" y="97"/>
      <point x="1008" y="71" type="curve" smooth="yes"/>
      <point x="1008" y="19"/>
      <point x="1046" y="-7"/>
      <point x="1101" y="-7" type="curve" smooth="yes"/>
      <point x="1141" y="-7"/>
      <point x="1175" y="7"/>
      <point x="1195" y="22" type="curve"/>
      <point x="1205" y="74" type="line"/>
      <point x="1194" y="70"/>
      <point x="1160" y="53"/>
      <point x="1130" y="53" type="curve" smooth="yes"/>
      <point x="1108" y="53"/>
      <point x="1098" y="62"/>
      <point x="1098" y="80" type="curve" smooth="yes"/>
      <point x="1098" y="94"/>
      <point x="1103" y="119"/>
      <point x="1111" y="161" type="curve" smooth="yes"/>
      <point x="1142" y="325" type="line" smooth="yes"/>
      <point x="1148" y="357"/>
      <point x="1151" y="383"/>
      <point x="1151" y="401" type="curve" smooth="yes"/>
      <point x="1151" y="475"/>
      <point x="1103" y="518"/>
      <point x="1029" y="518" type="curve" smooth="yes"/>
      <point x="956" y="518"/>
      <point x="899" y="477"/>
      <point x="845" y="409" type="curve"/>
      <point x="902" y="735" type="line"/>
      <point x="772" y="735" type="line"/>
      <point x="746" y="745"/>
      <point x="714" y="752"/>
      <point x="678" y="752" type="curve" smooth="yes"/>
      <point x="574" y="752"/>
      <point x="482" y="700"/>
      <point x="464" y="557" type="curve" smooth="yes"/>
      <point x="458" y="508" type="line"/>
      <point x="241" y="508" type="line"/>
      <point x="248" y="549" type="line" smooth="yes"/>
      <point x="265" y="654"/>
      <point x="299" y="682"/>
      <point x="351" y="682" type="curve" smooth="yes"/>
      <point x="379" y="682"/>
      <point x="406" y="673"/>
      <point x="425" y="666" type="curve"/>
      <point x="435" y="724" type="line"/>
      <point x="422" y="730"/>
      <point x="389" y="738"/>
      <point x="351" y="738" type="curve" smooth="yes"/>
      <point x="260" y="738"/>
      <point x="172" y="691"/>
      <point x="153" y="543" type="curve" smooth="yes"/>
      <point x="149" y="508" type="line"/>
      <point x="52" y="508" type="line"/>
      <point x="43" y="454" type="line"/>
      <point x="142" y="454" type="line"/>
      <point x="55" y="-223" type="line"/>
    </contour>
  </outline>
</glyph>
<glyph name="five.lin" format="1">
  <advance width="560"/>
  <outline>
    <contour>
      <point x="231" y="-10" type="curve" smooth="yes"/>
      <point x="396" y="-10"/>
      <point x="502" y="110"/>
      <point x="502" y="259" type="curve" smooth="yes"/>
      <point x="502" y="386"/>
      <point x="418" y="472"/>
      <point x="297" y="472" type="curve" smooth="yes"/>
      <point x="239" y="472"/>
      <point x="192" y="451"/>
      <point x="154" y="418" type="curve"/>
      <point x="193" y="633" type="line"/>
      <point x="486" y="633" type="line"/>
      <point x="514" y="710" type="line"/>
      <point x="142" y="710" type="line"/>
      <point x="78" y="346" type="line"/>
      <point x="133" y="346" type="line"/>
      <point x="171" y="386"/>
      <point x="215" y="412"/>
      <point x="275" y="412" type="curve" smooth="yes"/>
      <point x="357" y="412"/>
      <point x="408" y="357"/>
      <point x="408" y="262" type="curve" smooth="yes"/>
      <point x="408" y="146"/>
      <point x="346" y="50"/>
      <point x="234" y="50" type="curve" smooth="yes"/>
      <point x="121" y="50"/>
      <point x="72" y="124"/>
      <point x="47" y="198" type="curve"/>
      <point x="-10" y="163" type="line"/>
      <point x="22" y="66"/>
      <point x="94" y="-10"/>
    </contour>
  </outline>
</glyph>
<glyph name="lira.alt" format="1">
  <advance width="560"/>
  <outline>
    <contour>
      <point x="44" y="296" type="line"/>
      <point x="35" y="244" type="line"/>
      <point x="166" y="244" type="line"/>
      <point x="147" y="154"/>
      <point x="60" y="101"/>
      <point x="2" y="73" type="curve"/>
      <point x="-11" y="0" type="line"/>
      <point x="467" y="0" type="line"/>
      <point x="505" y="215" type="line"/>
      <point x="447" y="215" type="line"/>
      <point x="420" y="115" type="line" smooth="yes"/>
      <point x="410" y="79"/>
      <point x="373" y="72"/>
      <point x="287" y="72" type="curve" smooth="yes"/>
      <point x="106" y="72" type="line"/>
      <point x="169" y="103"/>
      <point x="224" y="168"/>
      <point x="242" y="244" type="curve"/>
      <point x="395" y="244" type="line"/>
      <point x="404" y="296" type="line"/>
      <point x="249" y="296" type="line"/>
      <point x="249" y="300" type="line" smooth="yes"/>
      <point x="249" y="335"/>
      <point x="241" y="366"/>
      <point x="233" y="399" type="curve"/>
      <point x="422" y="399" type="line"/>
      <point x="431" y="451" type="line"/>
      <point x="224" y="451" type="line"/>
      <point x="223" y="462"/>
      <point x="222" y="473"/>
      <point x="222" y="485" type="curve" smooth="yes"/>
      <point x="222" y="570"/>
      <point x="251" y="658"/>
      <point x="365" y="658" type="curve" smooth="yes"/>
      <point x="407" y="658"/>
      <point x="438" y="647"/>
      <point x="461" y="630" type="curve"/>
      <point x="444" y="534" type="line"/>
      <point x="532" y="534" type="line"/>
      <point x="553" y="654" type="line"/>
      <point x="533" y="675"/>
      <point x="469" y="718"/>
      <point x="365" y="718" type="curve" smooth="yes"/>
      <point x="201" y="718"/>
      <point x="127" y="610"/>
      <point x="127" y="496" type="curve" smooth="yes"/>
      <point x="127" y="480"/>
      <point x="129" y="465"/>
      <point x="131" y="451" type="curve"/>
      <point x="71" y="451" type="line"/>
      <point x="62" y="399" type="line"/>
      <point x="144" y="399" type="line"/>
      <point x="155" y="364"/>
      <point x="167" y="331"/>
      <point x="169" y="296" type="curve"/>
    </contour>
  </outline>
</glyph>
<glyph name="macron_grave.uc" format="1">
  <advance width="556"/>
  <outline>
    <contour>
      <point x="182" y="862" type="line"/>
      <point x="170" y="797" type="line"/>
      <point x="460" y="797" type="line"/>
      <point x="472" y="862" type="line"/>
    </contour>
    <contour>
      <point x="364" y="906" type="line"/>
      <point x="285" y="947" type="line" smooth="yes"/>
      <point x="249" y="964"/>
      <point x="227" y="980"/>
      <point x="227" y="1009" type="curve" smooth="yes"/>
      <point x="227" y="1032"/>
      <point x="244" y="1055"/>
      <point x="276" y="1055" type="curve" smooth="yes"/>
      <point x="306" y="1055"/>
      <point x="320" y="1037"/>
      <point x="344" y="1003" type="curve" smooth="yes"/>
      <point x="394" y="928" type="line"/>
      <point x="394" y="906" type="line"/>
    </contour>
    <contour>
      <point x="278" y="694" type="move" name="_top"/>
    </contour>
  </outline>
</glyph>
<glyph name="nine.sub" format="1">
  <advance width="324"/>
  <outline>
    <contour>
      <point x="136" y="246" type="curve" smooth="yes"/>
      <point x="43" y="246"/>
      <point x="-8" y="190"/>
      <point x="-8" y="126" type="curve" smooth="yes"/>
      <point x="-8" y="64"/>
      <point x="36" y="19"/>
      <point x="103" y="19" type="curve" smooth="yes"/>
      <point x="140" y="19"/>
      <point x="169" y="34"/>
      <point x="188" y="55" type="curve"/>
      <point x="164" y="-26"/>
      <point x="97" y="-78"/>
      <point x="-5" y="-81" type="curve"/>
      <point x="-5" y="-119" type="line"/>
      <point x="174" y="-115"/>
      <point x="270" y="-2"/>
      <point x="270" y="111" type="curve" smooth="yes"/>
      <point x="270" y="189"/>
      <point x="222" y="246"/>
    </contour>
    <contour>
      <point x="67" y="124" type="curve" smooth="yes"/>
      <point x="67" y="170"/>
      <point x="87" y="207"/>
      <point x="132" y="207" type="curve"/>
      <point x="174" y="207"/>
      <point x="197" y="177"/>
      <point x="197" y="125" type="curve" smooth="yes"/>
      <point x="197" y="117"/>
      <point x="197" y="108"/>
      <point x="196" y="100" type="curve"/>
      <point x="179" y="73"/>
      <point x="155" y="58"/>
      <point x="124" y="58" type="curve" smooth="yes"/>
      <point x="86" y="58"/>
      <point x="67" y="84"/>
    </contour>
  </outline>
</glyph>
<glyph name="seven.den" format="1">
  <advance width="324"/>
  <outline>
    <contour>
      <point x="136" y="284" type="curve" smooth="yes"/>
      <point x="243" y="284" type="line"/>
      <point x="187" y="237"/>
      <point x="83" y="117"/>
      <point x="65" y="0" type="curve"/>
      <point x="140" y="0" type="line"/>
      <point x="156" y="134"/>
      <point x="210" y="204"/>
      <point x="293" y="287" type="curve"/>
      <point x="303" y="341" type="line"/>
      <point x="43" y="341" type="line"/>
      <point x="20" y="213" type="line"/>
      <point x="55" y="213" type="line"/>
      <point x="68" y="260" type="line" smooth="yes"/>
      <point x="73" y="280"/>
      <point x="92" y="284"/>
    </contour>
  </outline>
</glyph>
<glyph name="seven.sup" format="1">
  <advance width="324"/>
  <outline>
    <contour>
      <point x="197" y="653" type="curve" smooth="yes"/>
      <point x="304" y="653" type="line"/>
      <point x="248" y="606"/>
      <point x="144" y="486"/>
      <point x="126" y="369" type="curve"/>
      <point x="201" y="369" type="line"/>
      <point x="217" y="503"/>
      <point x="271" y="573"/>
      <point x="354" y="656" type="curve"/>
      <point x="364" y="710" type="line"/>
      <point x="104" y="710" type="line"/>
      <point x="81" y="582" type="line"/>
      <point x="116" y="582" type="line"/>
      <point x="129" y="629" type="line" smooth="yes"/>
      <point x="134" y="649"/>
      <point x="153" y="653"/>
    </contour>
  </outline>
</glyph>
<glyph name="sterling.alt" format="1">
  <advance width="560"/>
  <outline>
    <contour>
      <point x="-11" y="0" type="line"/>
      <point x="467" y="0" type="line"/>
      <point x="505" y="215" type="line"/>
      <point x="447" y="215" type="line"/>
      <point x="420" y="115" type="line" smooth="yes"/>
      <point x="410" y="79"/>
      <point x="373" y="72"/>
      <point x="287" y="72" type="curve" smooth="yes"/>
      <point x="106" y="72" type="line"/>
      <point x="184" y="110"/>
      <point x="249" y="201"/>
      <point x="249" y="300" type="curve" smooth="yes"/>
      <point x="249" y="306"/>
      <point x="249" y="312"/>
      <point x="248" y="317" type="curve"/>
      <point x="420" y="317" type="line"/>
      <point x="429" y="369" type="line"/>
      <point x="240" y="369" type="line"/>
      <point x="232" y="404"/>
      <point x="222" y="440"/>
      <point x="222" y="485" type="curve" smooth="yes"/>
      <point x="222" y="570"/>
      <point x="247" y="658"/>
      <point x="359" y="658" type="curve" smooth="yes"/>
      <point x="400" y="658"/>
      <point x="432" y="647"/>
      <point x="456" y="631" type="curve"/>
      <point x="441" y="544" type="line"/>
      <point x="529" y="544" type="line"/>
      <point x="547" y="654" type="line"/>
      <point x="526" y="675"/>
      <point x="463" y="718"/>
      <point x="359" y="718" type="curve" smooth="yes"/>
      <point x="197" y="718"/>
      <point x="127" y="610"/>
      <point x="127" y="496" type="curve" smooth="yes"/>
      <point x="127" y="449"/>
      <point x="141" y="409"/>
      <point x="154" y="369" type="curve"/>
      <point x="59" y="369" type="line"/>
      <point x="50" y="317" type="line"/>
      <point x="167" y="317" type="line"/>
      <point x="169" y="306"/>
      <point x="170" y="294"/>
      <point x="170" y="282" type="curve" smooth="yes"/>
      <point x="170" y="168"/>
      <point x="68" y="105"/>
      <point x="2" y="73" type="curve"/>
    </contour>
  </outline>
</glyph>
<glyph name="tilde_acute.uc" format="1">
  <advance width="580"/>
  <outline>
    <contour>
      <point x="214" y="761" type="line"/>
      <point x="224" y="798"/>
      <point x="239" y="818"/>
      <point x="262" y="818" type="curve" smooth="yes"/>
      <point x="297" y="818"/>
      <point x="325" y="765"/>
      <point x="392" y="765" type="curve"/>
      <point x="441" y="765"/>
      <point x="482" y="799"/>
      <point x="504" y="866" type="curve"/>
      <point x="457" y="889" type="line"/>
      <point x="442" y="853"/>
      <point x="427" y="833"/>
      <point x="406" y="833" type="curve" smooth="yes"/>
      <point x="364" y="833"/>
      <point x="339" y="885"/>
      <point x="274" y="885" type="curve" smooth="yes"/>
      <point x="216" y="885"/>
      <point x="186" y="852"/>
      <point x="167" y="784" type="curve"/>
    </contour>
    <contour>
      <point x="365" y="1023" type="curve" smooth="yes"/>
      <point x="296" y="948" type="line"/>
      <point x="292" y="926" type="line"/>
      <point x="320" y="926" type="line"/>
      <point x="410" y="967" type="line" smooth="yes"/>
      <point x="455" y="987"/>
      <point x="483" y="1005"/>
      <point x="483" y="1037" type="curve" smooth="yes"/>
      <point x="483" y="1058"/>
      <point x="467" y="1075"/>
      <point x="442" y="1075" type="curve" smooth="yes"/>
      <point x="415" y="1075"/>
      <point x="397" y="1057"/>
    </contour>
    <contour>
      <point x="284" y="694" type="move" name="_top"/>
    </contour>
  </outline>
</glyph>
<glyph name="zero.sub" format="1">
  <advance width="324"/>
  <outline>
    <contour>
      <point x="-22" y="42" type="curve" smooth="yes"/>
      <point x="-22" y="-32"/>
      <point x="14" y="-106"/>
      <point x="102" y="-106" type="curve" smooth="yes"/>
      <point x="220" y="-106"/>
      <point x="271" y="13"/>
      <point x="271" y="99" type="curve" smooth="yes"/>
      <point x="271" y="173"/>
      <point x="234" y="247"/>
      <point x="146" y="247" type="curve" smooth="yes"/>
      <point x="29" y="247"/>
      <point x="-22" y="128"/>
    </contour>
    <contour>
      <point x="60" y="80" type="curve" smooth="yes"/>
      <point x="70" y="141"/>
      <point x="95" y="208"/>
      <point x="144" y="208" type="curve"/>
      <point x="184" y="208"/>
      <point x="194" y="173"/>
      <point x="194" y="125" type="curve" smooth="yes"/>
      <point x="194" y="107"/>
      <point x="192" y="84"/>
      <point x="188" y="61" type="curve" smooth="yes"/>
      <point x="178" y="0"/>
      <point x="153" y="-67"/>
      <point x="104" y="-67" type="curve"/>
      <point x="64" y="-67"/>
      <point x="54" y="-32"/>
      <point x="54" y="16" type="curve" smooth="yes"/>
      <point x="54" y="34"/>
      <point x="56" y="57"/>
    </contour>
  </outline>
</glyph>
<glyph name="zero.sup" format="1">
  <advance width="324"/>
  <outline>
    <contour>
      <point x="61" y="511" type="curve" smooth="yes"/>
      <point x="61" y="437"/>
      <point x="97" y="363"/>
      <point x="185" y="363" type="curve" smooth="yes"/>
      <point x="303" y="363"/>
      <point x="354" y="482"/>
      <point x="354" y="568" type="curve" smooth="yes"/>
      <point x="354" y="642"/>
      <point x="317" y="716"/>
      <point x="229" y="716" type="curve" smooth="yes"/>
      <point x="112" y="716"/>
      <point x="61" y="597"/>
    </contour>
    <contour>
      <point x="143" y="549" type="curve" smooth="yes"/>
      <point x="153" y="610"/>
      <point x="178" y="677"/>
      <point x="227" y="677" type="curve"/>
      <point x="267" y="677"/>
      <point x="277" y="642"/>
      <point x="277" y="594" type="curve" smooth="yes"/>
      <point x="277" y="576"/>
      <point x="275" y="553"/>
      <point x="271" y="530" type="curve" smooth="yes"/>
      <point x="261" y="469"/>
      <point x="236" y="402"/>
      <point x="187" y="402" type="curve"/>
      <point x="147" y="402"/>
      <point x="137" y="437"/>
      <point x="137" y="485" type="curve" smooth="yes"/>
      <point x="137" y="503"/>
      <point x="139" y="526"/>
    </contour>
  </outline>
</glyph>
